<?xml version="1.0" standalone="no"?><!DOCTYPE svg PUBLIC "-//W3C//DTD SVG 1.1//EN" "http://www.w3.org/Graphics/SVG/1.1/DTD/svg11.dtd"><svg t="1684999434680" class="icon" viewBox="0 0 1097 1024" version="1.1" xmlns="http://www.w3.org/2000/svg" p-id="2437" xmlns:xlink="http://www.w3.org/1999/xlink" width="137.125" height="128"><path d="M379.696 576.094h-129.32c-0.008 0-0.020 0-0.031 0-17.832 0-32.288-14.455-32.288-32.288 0-0.037 0-0.074 0-0.112 0-17.938 14.419-32.388 32.319-32.388h97v-97.196c0-17.945 14.419-32.393 32.319-32.393 17.915 0 32.333 14.45 32.333 32.393v129.591c0 17.945-14.419 32.393-32.333 32.393zM733.59 668.245c-62.573 0-114.886 43.906-128.626 102.41h-125.146c-13.726-58.687-66.054-102.41-128.626-102.41-72.999 0-132.438 59.575-132.438 132.726 0 73.331 59.438 132.906 132.438 132.906 61.021 0 111.948-41.797 127.241-98.237h127.753c15.293 56.44 66.219 98.237 127.406 98.237 73.015 0 132.454-59.575 132.454-132.726 0-73.164-59.438-132.906-132.454-132.906zM351.191 868.906c-37.367 0-67.786-30.48-67.786-68.102 0.008-37.464 30.334-67.843 67.778-67.937 37.468 0.085 67.802 30.467 67.81 67.936 0 37.623-30.421 68.103-67.802 68.103zM733.59 868.741c-36.907-0.802-66.521-30.911-66.521-67.937s29.613-67.135 66.446-67.936c36.983 0.801 66.596 30.909 66.596 67.936 0 37.026-29.613 67.135-66.446 67.936zM897.157 90.125h-469.14c-44.493 0-80.638 36.235-80.638 80.82v93.716l-196.594 98.93c-4.225 2.206-7.766 5.168-10.566 8.737-29.934 19.483-50.094 59.547-50.094 106.586v326.063c0 17.945 14.435 32.393 32.333 32.393 0.008 0 0.021 0 0.031 0 17.841 0 32.304-14.463 32.304-32.304 0-0.033 0-0.064 0-0.096v-326.060c0-25.267 9.206-45.126 27.286-58.701l212.218-106.614c1.402-0.693 2.44-2.078 3.661-2.953 1.913-1.402 3.828-2.622 5.379-4.188 1.402-1.567 2.44-3.3 3.48-5.048 1.040-1.733 2.26-3.315 2.953-5.393 0.875-2.274 1.040-4.536 1.386-6.796 0.18-1.567 0.875-2.968 0.875-4.536v-113.741c0-8.708 7.126-16.016 15.985-16.016h469.14c17.719 0 32.319 14.797 32.319 32.921v615.034c0 17.858 14.477 32.333 32.333 32.333s32.333-14.477 32.333-32.333v-615.034c0-53.835-43.633-97.724-96.985-97.724z" p-id="2438" fill="#333333"></path></svg>