<svg t="1694594816865" class="icon" viewBox="0 0 1024 1024" version="1.1" xmlns="http://www.w3.org/2000/svg" p-id="12850" width="200" height="200"><path d="M448.1 703.9h320.1v63.9H448.1zM448.1 541.9h320.1v63.9H448.1zM255.3 703.9h128v63.9h-128zM255.3 541.9h128v63.9h-128zM960.4 292.7c0-3-3-6-3-9L888.1 82c-5.4-10.2-15.6-17-27.1-18.1H159.8c-12.2 0.5-22.3 9.6-24.1 21.6l-69.3 202c-2.3 2.4-3.4 5.7-3 9 0 54.5 27.4 91.4 64.6 110.8v-23.5h64v39.4c40.9 0.9 82.3-14.4 108.8-45.8 51.2 60.3 159.5 60.3 210.7 0 51.2 60.3 159.5 60.3 210.7 0 27.2 29.3 65.5 45.7 105.5 45.2l-0.3-0.5c1.3 0 2.5 0 3.8-0.1v-38.3h65.9v20.5c36.5-20.4 63.3-58.1 63.3-111.5z m-145 66.3c-29 0-75.1-14.3-75.1-68.5v0.2c-1.1-13.4-12.4-23.8-26.1-23.8-13.6 0-25 10.4-26.1 23.8 0 54.1-46.2 68.5-75.1 68.5-28.9 0-75.1-14.3-75.1-68.5 0-9.2-5-17.6-13-22.2-8-4.6-17.9-4.6-26 0-8 4.6-13 13-13 22.2 0 54.1-46.2 68.5-75.1 68.5-28.9 0-75.1-14.3-75.1-68.5-1.1-13.4-12.4-23.8-26.1-23.8s-25 10.4-26.1 23.8c0 54.1-46.1 68.5-75.1 68.5-26 0-72.2-11.6-75.1-62.9L194.4 128h635.3l60.7 165.7c-2.7 38.4-36.1 67.5-75 65.3z" fill="#555555" p-id="12851"></path><path d="M831.2 383.8v512H192v-512h-64v575.9h769.1V383.8z" fill="#555555" p-id="12852"></path></svg>