<?xml version="1.0" standalone="no"?><!DOCTYPE svg PUBLIC "-//W3C//DTD SVG 1.1//EN" "http://www.w3.org/Graphics/SVG/1.1/DTD/svg11.dtd"><svg t="1695375141729" class="icon" viewBox="0 0 1024 1024" version="1.1" xmlns="http://www.w3.org/2000/svg" p-id="6816" width="64" height="64" xmlns:xlink="http://www.w3.org/1999/xlink"><path d="M512 90.352941c232.869647 0 421.647059 188.777412 421.647059 421.647059s-188.777412 421.647059-421.647059 421.647059S90.352941 744.869647 90.352941 512 279.130353 90.352941 512 90.352941z m50.356706 531.124706c-3.403294 1.566118-6.927059 3.011765-10.541177 4.246588l43.309177 238.08a359.243294 359.243294 0 0 0 105.110588-43.218823z m-102.038588-0.602353L322.56 819.802353a359.303529 359.303529 0 0 0 106.285176 43.971765l43.309177-238.08a119.687529 119.687529 0 0 1-11.836235-4.879059z m165.406117-69.059765a119.747765 119.747765 0 0 1-6.204235 14.576942l198.746353 137.607529a359.303529 359.303529 0 0 0 45.537882-108.875294z m-227.44847 0L160.195765 595.124706a359.303529 359.303529 0 0 0 45.025882 108.062118l198.806588-137.637648a119.717647 119.717647 0 0 1-5.75247-13.733647z m422.00847-228.562823l-199.077647 137.818353c1.686588 3.614118 3.192471 7.288471 4.517647 11.083294l238.08-43.309177a359.273412 359.273412 0 0 0-43.52-105.59247zM160.195765 428.845176l238.08 43.309177c1.204706-3.493647 2.590118-6.866824 4.096-10.209882L203.233882 324.065882a359.243294 359.243294 0 0 0-43.038117 104.779294z m160.105411-223.292235l137.637648 198.776471c4.577882-2.319059 9.336471-4.336941 14.245647-6.053647L428.875294 160.195765a359.303529 359.303529 0 0 0-108.574118 45.357176z m274.853648-45.357176l-43.309177 238.08c4.457412 1.566118 8.764235 3.373176 12.950588 5.421176L702.494118 204.8a359.303529 359.303529 0 0 0-107.339294-44.574118z" p-id="6817" data-spm-anchor-id="a313x.search_index.0.i0.63f73a81jKTLrF" class="selected" fill="#555555"></path></svg>