<?xml version="1.0" standalone="no"?><!DOCTYPE svg PUBLIC "-//W3C//DTD SVG 1.1//EN" "http://www.w3.org/Graphics/SVG/1.1/DTD/svg11.dtd"><svg t="1688450313355" class="icon" viewBox="0 0 1024 1024" version="1.1" xmlns="http://www.w3.org/2000/svg" p-id="2581" xmlns:xlink="http://www.w3.org/1999/xlink" width="128" height="128"><path d="M512 64a448 448 0 1 0 0 896A448 448 0 0 0 512 64z m0 820.032A372.032 372.032 0 0 1 512 139.968a372.032 372.032 0 0 1 0 744.064z" fill="#333333" fill-opacity=".65" p-id="2582"></path><path d="M352 352.128v319.744h58.56V352.128H352z m122.112 0v319.744h115.584c51.456 0 90.432-14.336 117.312-43.008 25.536-27.776 38.528-66.688 38.528-116.864 0-50.56-12.544-89.6-37.632-116.48-26.88-29.056-65.856-43.392-117.312-43.392h-116.48z m58.56 54.848h52.16c35.84 0 62.08 8.32 78.72 25.472 16 16.64 24.32 42.944 24.32 79.552 0 35.84-8.32 62.08-24.704 79.168-16.64 17.152-43.328 25.856-79.168 25.856h-51.328V407.04z" fill="#333333" fill-opacity=".65" p-id="2583"></path></svg>