<?xml version="1.0" standalone="no"?><!DOCTYPE svg PUBLIC "-//W3C//DTD SVG 1.1//EN" "http://www.w3.org/Graphics/SVG/1.1/DTD/svg11.dtd"><svg t="1703747289502" class="icon" viewBox="0 0 1024 1024" version="1.1" xmlns="http://www.w3.org/2000/svg" p-id="10164" xmlns:xlink="http://www.w3.org/1999/xlink" width="200" height="200"><path d="M508.8768 555.7248c1.0752 0 2.048-0.3072 3.1232-0.3072 1.0752 0 2.048 0.3072 3.1232 0.3072a222.3616 222.3616 0 1 0 0-444.8256c-1.0752 0-2.048 0.3072-3.1232 0.3072-1.0752 0-2.048-0.3072-3.1232-0.3072a222.4128 222.4128 0 1 0 0 444.8256zM518.912 611.0208c-2.3552 0-4.5568 0.2048-6.912 0.256-2.304-0.0512-4.5568-0.256-6.912-0.256-204.8 0-369.4592 137.0112-369.4592 305.3568H888.32c0.0512-168.3968-164.5568-305.3568-369.408-305.3568z" fill="#555555" p-id="10165"></path></svg>