<svg t="1701173142651" class="icon" viewBox="0 0 1024 1024" version="1.1" xmlns="http://www.w3.org/2000/svg" p-id="14038" width="200" height="200"><path d="M885.429533 277.210039h-172.915828a278.254415 278.254415 0 0 0 52.587381-37.884212c69.29739-64.587461 81.911809-157.721188 27.890971-208.015038a124.710729 124.710729 0 0 0-86.294091-31.208399 205.639596 205.639596 0 0 0-136.915588 57.338266 274.158824 274.158824 0 0 0-57.706869 79.126807 272.807279 272.807279 0 0 0-57.70687-79.126807 205.680552 205.680552 0 0 0-136.9975-57.338266A124.710729 124.710729 0 0 0 231.036093 31.310789c-53.89797 50.293851-41.406419 143.345665 27.89097 208.015038a278.254415 278.254415 0 0 0 52.587382 37.884212H138.639572A74.908349 74.908349 0 0 0 63.936003 351.954565v261.339626h410.746765v-303.073693a83.427177 83.427177 0 0 0 35.672593-18.921628l1.883971-1.80206a40.013919 40.013919 0 0 0 1.883972 1.80206 83.427177 83.427177 0 0 0 35.508769 18.921628v303.073693h410.378162V351.954565a74.867393 74.867393 0 0 0-74.580702-74.744526z m-263.837936-164.233177a130.444556 130.444556 0 0 1 85.024458-36.860314 52.259734 52.259734 0 0 1 34.402959 10.812359 30.471193 30.471193 0 0 1 9.296991 24.573543 105.256674 105.256674 0 0 1-37.187962 71.7957 214.608939 214.608939 0 0 1-128.724407 54.799 69.625037 69.625037 0 0 1-17.815819-2.088751 159.072733 159.072733 0 0 1 55.00378-122.867713z m-348.125187-1.310589a30.757884 30.757884 0 0 1 9.215078-24.573542 52.259734 52.259734 0 0 1 34.40296-10.812359 129.953085 129.953085 0 0 1 85.024457 36.860314 164.069353 164.069353 0 0 1 56.191501 122.212419 38.375682 38.375682 0 0 1-19.085451 3.112648 214.567983 214.567983 0 0 1-128.60154-54.799 105.830057 105.830057 0 0 1-37.10605-71.918568z m275.919928 912.333727h335.838416a74.826437 74.826437 0 0 0 74.621658-74.70357v-261.134846H549.386338zM63.936003 949.29643a74.908349 74.908349 0 0 0 74.703569 74.70357h335.838416v-335.838416H63.936003z" fill="#555555" p-id="14039"></path></svg>