<svg t="1717124114117" class="icon" viewBox="0 0 1024 1024" version="1.1" xmlns="http://www.w3.org/2000/svg" p-id="8581" width="128" height="128"><path d="M640 896a32 32 0 1 1 0 64H384A32 32 0 1 1 384 896h256zM196.608 227.370667A352 352 0 1 1 736 655.189333v160.810667a16 16 0 0 1-16 16h-416a16 16 0 0 1-16-16v-160.810667A352 352 0 0 1 196.608 227.413333zM512 95.744a288 288 0 0 0-160 527.445333V768h320v-144.810667A288 288 0 0 0 512 95.744z" fill="#707070" p-id="8582" data-spm-anchor-id="a313x.search_index.0.i12.2e293a81UpLUxZ" class="selected"></path></svg>