<svg t="1688700854855" class="icon" viewBox="0 0 1024 1024" version="1.1" xmlns="http://www.w3.org/2000/svg" p-id="10981" width="200" height="200"><path d="M883.418886 727.880834 883.418886 513.6116c0-0.359813-0.012095-0.717611-0.027213-1.0744 0.016126-0.35679 0.027213-0.714587 0.027213-1.0744l0-1.00788c0-13.915799-11.2812-25.196999-25.196999-25.196999L515.148617 485.257921 515.148617 313.427489c0-0.397105-0.012095-0.790178-0.029229-1.182243 70.148446-12.169143 123.494525-73.330323 123.494525-146.95797 0-82.382093-66.784142-149.166235-149.166235-149.166235s-149.166235 66.784142-149.166235 149.166235c0 73.627647 53.347087 134.788827 123.495532 146.95797-0.018142 0.392065-0.030236 0.786146-0.030236 1.182243l0 171.829424L152.675673 485.256913c-13.915799 0-25.196999 11.2812-25.196999 25.196999l0 1.00788c0 0.359813 0.012095 0.717611 0.027213 1.0744-0.015118 0.35679-0.027213 0.714587-0.027213 1.0744l0 214.270242c-70.133328 12.180229-123.465296 73.335362-123.465296 146.952931 0 82.382093 66.784142 149.166235 149.166235 149.166235s149.166235-66.784142 149.166235-149.166235c0-73.617569-53.331968-134.772701-123.465296-146.952931L178.880552 536.658791 832.017008 536.658791l0 191.223051C761.88368 740.061063 708.551712 801.216196 708.551712 874.833765c0 82.382093 66.784142 149.166235 149.166235 149.166235s149.166235-66.784142 149.166235-149.166235C1006.884182 801.216196 953.551206 740.061063 883.418886 727.880834zM391.683321 165.286267c0-53.994146 43.771219-97.764357 97.764357-97.764357s97.764357 43.770211 97.764357 97.764357-43.771219 97.764357-97.764357 97.764357S391.683321 219.280413 391.683321 165.286267zM250.94397 874.833765c0 53.993138-43.771219 97.764357-97.764357 97.764357s-97.764357-43.771219-97.764357-97.764357 43.771219-97.764357 97.764357-97.764357S250.94397 820.840627 250.94397 874.833765zM857.717947 972.598122c-53.993138 0-97.764357-43.771219-97.764357-97.764357s43.771219-97.764357 97.764357-97.764357 97.764357 43.771219 97.764357 97.764357S911.711085 972.598122 857.717947 972.598122z" fill="#555555" p-id="10982"></path></svg>