<svg t="1690808824321" class="icon" viewBox="0 0 1024 1024" version="1.1" xmlns="http://www.w3.org/2000/svg" p-id="14858" width="200" height="200"><path d="M968.194458 359.936c36.352-39.424 56.32-90.624 56.32-144.384 0-118.784-96.256-215.04-215.552-215.04-118.784 0-215.04 96.256-215.04 215.04 1.024 53.76 22.016 104.96 59.392 143.36l137.728 152.064c5.632 5.632 12.8 8.704 20.992 9.216 7.68 0 14.848-3.072 19.968-9.216M696.834458 328.192c-60.928-64-58.368-164.864 5.12-225.792 29.696-28.16 69.12-47.616 110.08-47.616 87.552-0.512 159.232 70.144 159.744 157.696 0.512 41.984-15.872 81.92-45.056 112.128l-115.2 125.44" p-id="14859" fill="#555555"></path><path d="M812.546458 323.584c61.952 0 112.128-50.176 112.128-112.128 0-61.952-50.176-112.128-112.128-112.128-61.952 0-112.128 50.176-112.128 112.128 0 61.952 50.176 112.128 112.128 112.128z m0-168.448c31.232 0 56.32 25.088 56.32 56.32s-25.088 56.32-56.32 56.32-56.32-25.088-56.32-56.32 25.088-56.32 56.32-56.32zM252.418458 925.184h569.344c47.616 0 93.696-18.944 127.488-52.736 33.792-33.28 52.736-79.36 52.224-126.976 0-99.328-80.384-179.712-179.712-179.712H179.202458c-69.12 0-124.928-55.808-124.928-124.928s55.808-124.928 124.928-124.928h352.768c15.36 0 27.648-12.288 27.648-27.648 0-15.36-12.288-27.648-27.648-27.648H179.202458C79.362458 261.12-0.509542 343.04 0.002458 442.368c0.512 47.104 19.456 92.672 52.736 125.952 33.28 33.792 78.848 53.248 125.952 52.736h641.536c68.608-0.512 124.416 54.784 124.928 123.392v0.512c0.512 32.768-12.8 64.512-36.352 87.552-23.552 23.04-54.784 36.352-87.552 36.352H252.418458c-15.36-68.096-82.944-110.592-151.04-95.232s-110.592 82.944-95.232 151.04 82.944 110.592 151.04 95.232c47.104-10.24 84.48-47.616 95.232-94.72z m-194.048-28.16c0-38.4 31.232-69.632 69.632-69.632s69.632 31.232 69.632 69.632-31.232 69.632-69.632 69.632-69.632-30.72-69.632-69.632z" p-id="14860" fill="#555555"></path></svg>