<svg t="1695632683868" class="icon" viewBox="0 0 1040 1024" version="1.1" xmlns="http://www.w3.org/2000/svg" p-id="10030" width="48" height="48"><path d="M1.83614 745.82485c71.609444-10.098768 114.758725-53.248048 114.758725-112.922585S72.527514 530.078447 0.91807 520.897749c0-70.691375-1.83614-141.382749 0.91807-212.074124 0.91807-33.050513 30.296303-58.756467 65.182955-64.264886 11.934907-1.83614 23.869815-1.83614 36.722793-1.83614h830.85317c77.117863 0 104.659957 26.624024 104.659957 100.069608v177.187472c-75.281724 12.852977-116.594865 56.002258-115.676795 115.676795 0.91807 57.838397 43.149281 99.151539 115.676795 110.168376 0 69.773305 1.83614 139.54661-0.91807 209.319915-0.91807 36.722792-34.886652 65.182956-75.281723 67.937165-15.607187 0.91807-30.296303 0.91807-45.903491 0.91807H112.922586C24.787885 1024 0 1001.048255 0 917.503903V753.169409c0-1.83614 0.91807-3.672279 1.83614-7.344559z m516.873298-182.69589h225.845171c35.804722 0 52.329979-14.689117 53.248048-45.90349 0.91807-34.886652-16.525256-53.248048-52.329978-53.248049H297.454616c-37.640862 0-55.084188 17.443326-55.084188 51.411909 0 33.050513 16.525256 47.73963 54.166118 47.73963h222.172892z m-2.75421 140.464679H299.290755c-39.477001 0-58.756467 17.443326-57.838397 50.493839 0 33.050513 18.361396 48.657699 56.920327 48.6577h442.509645c39.477001 0 56.920328-15.607187 56.002258-49.575769 0-34.886652-16.525256-49.575769-55.084189-49.57577-75.281724-0.91807-150.563447 0-225.845171 0zM120.267144 162.850526h535.234694L357.129153 13.205149c-56.002258-27.542094-123.939423-11.016838-159.744146 40.395071l-77.117863 109.250306z" p-id="10031" data-spm-anchor-id="a313x.search_index.0.i14.63f73a81jKTLrF" class="" fill="#938e8e"></path></svg>