<svg width="128" height="113" viewBox="0 0 128 113" fill="none" xmlns="http://www.w3.org/2000/svg">
<path d="M46.5544 71.4315C45.5735 71.9276 44.4389 72.0251 43.3878 71.7038C42.3367 71.3824 41.4506 70.667 40.9148 69.7073L40.6362 69.0936L28.9845 43.5275C28.7866 43.0973 28.7374 42.6135 28.8446 42.1522C28.9519 41.6909 29.2095 41.2784 29.5768 40.9796C29.9442 40.6808 30.4005 40.5126 30.874 40.5016C31.3474 40.4905 31.8111 40.6372 32.192 40.9186L45.9407 50.7068C46.7713 51.2523 47.7183 51.5954 48.7056 51.7085C49.6929 51.8216 50.6929 51.7016 51.6254 51.3581L116.284 22.5807C104.689 8.92612 85.6019 0 64 0C28.6532 0 0 23.8758 0 53.3308C0 69.4024 8.62118 83.8664 22.1139 93.6433C23.1981 94.4151 23.9059 95.6838 23.9059 97.1181C23.9059 97.5925 23.8042 98.0254 23.68 98.4772L20.7962 109.237C20.6607 109.741 20.4499 110.268 20.4499 110.795C20.4499 111.974 21.4061 112.93 22.5845 112.93C23.023 112.912 23.4484 112.775 23.8155 112.535L37.8278 104.448C38.8819 103.838 39.9962 103.462 41.2273 103.462C41.8824 103.462 42.5148 103.563 43.1096 103.744C49.6452 105.623 56.6965 106.669 64 106.669C99.3468 106.669 128 82.7896 128 53.3346C128 44.4122 125.357 36.0094 120.712 28.6231L47.0212 71.1642L46.5544 71.4315Z" fill="#707070"/>
</svg>
