<?xml version="1.0" standalone="no"?><!DOCTYPE svg PUBLIC "-//W3C//DTD SVG 1.1//EN" "http://www.w3.org/Graphics/SVG/1.1/DTD/svg11.dtd"><svg t="1685327910991" class="icon" viewBox="0 0 1024 1024" version="1.1" xmlns="http://www.w3.org/2000/svg" p-id="2488" xmlns:xlink="http://www.w3.org/1999/xlink" width="128" height="128"><path d="M306.172191 420.340417c-45.686529-15.009855-95.144964-22.849404-146.053424-23.295566-12.485359-1.335415-24.696472 2.944052-33.541931 11.790534-15.757892 15.757892-16.737196 40.532135-2.158153 55.112202 4.016477 4.016477 9.081843 6.831592 15.454994 8.492418l1.373277 1.373277 3.913123-0.063445c42.561351-0.209778 82.817194 6.701632 130.519636 22.416546 157.437705 51.79976 262.621303 197.078541 274.610358 379.098107l0.86367 9.656941 0.86367-0.130983c1.517563 5.234211 4.213975 9.81453 7.983835 13.58439 13.768585 13.768585 37.062104 12.878309 51.877531-1.937119 4.997827-4.997827 8.532327-11.044544 10.338463-17.616216l2.146896-0.26299-0.394996-8.664334c-9.289574-215.804021-131.041522-388.125715-317.794903-449.556832M155.48626 755.924475c-30.467919 30.467919-30.494525 80.015382-0.039909 110.469997 30.439266 30.439266 80.015382 30.440289 110.482277-0.027629 30.414707-30.414707 30.413684-79.989799-0.025583-110.429065C235.449453 725.483162 185.900967 725.509768 155.48626 755.924475M475.429083 163.478282c-97.17418-37.179784-200.406333-54.302767-302.476009-46.540989l-5.390777 5.390777-0.733711 0.733711c-27.065426 9.841136-33.200146 44.750203-13.973246 63.97608 4.581342 4.581342 14.814404 9.457396 21.331841 11.210319l0 0 0 0c90.249467-7.066953 188.100052 6.101975 273.745664 38.820144 260.736373 99.708909 415.950434 355.591741 369.150548 608.384188l-2.041496 11.096732 2.852978 0.027629c1.622964 7.223518 5.208629 13.845333 10.549264 19.185968 15.417131 15.417131 40.46562 15.388479 55.855122 0 4.424776-4.424776 7.644097-9.78997 9.447163-15.888875l1.231037 0.079818 1.493004-8.089235C946.517301 565.463656 769.473049 275.92326 475.429083 163.478282L475.429083 163.478282z" fill="#333333" p-id="2489"></path></svg>