<?xml version="1.0" standalone="no"?><!DOCTYPE svg PUBLIC "-//W3C//DTD SVG 1.1//EN" "http://www.w3.org/Graphics/SVG/1.1/DTD/svg11.dtd"><svg t="1706585904427" class="icon" viewBox="0 0 1024 1024" version="1.1" xmlns="http://www.w3.org/2000/svg" p-id="5755" width="128" height="128" xmlns:xlink="http://www.w3.org/1999/xlink"><path d="M772.8 100.48l171.52 167.04L234.56 960l-159.936-174.848L772.864 100.48z m-51.456 75.776l-38.592 38.656 143.168 142.976 38.592-38.656-143.168-142.976z m-448 30.08v-21.888c42.24 0 76.48-34.176 76.48-76.416h21.76c0 54.272-43.968 98.304-98.24 98.304z m174.72 0a98.304 98.304 0 0 1-98.24-98.304h21.76c0 42.24 34.304 76.416 76.544 76.416v21.888zM371.712 282.816h-21.824c0-42.24-34.24-76.48-76.48-76.48v-21.888c54.272 0 98.304 44.032 98.304 98.368z m0 0h-21.824c0-54.336 43.968-98.368 98.304-98.368v21.888c-42.24 0-76.48 34.24-76.48 76.48z m-212.992 185.6v-10.88a38.208 38.208 0 0 0 38.208-38.208h10.88a49.152 49.152 0 0 1-49.088 49.152z m87.36 0a49.152 49.152 0 0 1-49.152-49.088h10.88a38.208 38.208 0 0 0 38.272 38.208v10.88z m-38.208 38.272h-10.88a38.208 38.208 0 0 0-38.272-38.208v-10.88a49.152 49.152 0 0 1 49.152 49.088z m0 0h-10.88a49.152 49.152 0 0 1 49.088-49.152v10.88a38.208 38.208 0 0 0-38.208 38.272z m453.312 316.8v-32.768a136.512 136.512 0 0 0 136.512-136.576h32.768a169.28 169.28 0 0 1-169.28 169.344z m305.792 0a169.28 169.28 0 0 1-169.28-169.344h32.768c0 75.392 61.12 136.576 136.512 136.576v32.768zM830.4 960h-32.768a136.512 136.512 0 0 0-136.512-136.512v-32.768A169.28 169.28 0 0 1 830.4 960z m0 0h-32.768a169.28 169.28 0 0 1 169.28-169.28v32.768A136.512 136.512 0 0 0 830.4 960z" fill="#555555" p-id="5756"></path></svg>