<?xml version="1.0" standalone="no"?><!DOCTYPE svg PUBLIC "-//W3C//DTD SVG 1.1//EN" "http://www.w3.org/Graphics/SVG/1.1/DTD/svg11.dtd"><svg t="1684378034048" class="icon" viewBox="0 0 1024 1024" version="1.1" xmlns="http://www.w3.org/2000/svg" p-id="2419" xmlns:xlink="http://www.w3.org/1999/xlink" width="128" height="128"><path d="M910.222 794.34L794.34 910.222h-65.423l181.305-181.305v65.423z m0 85.162v30.72h-30.72l30.72-30.72z m0-235.747L643.755 910.222h-65.423l284.445-284.444h47.445v17.977z m-132.608-17.977L493.17 910.222h-65.422l284.444-284.444h65.422z m-150.642 0L342.528 910.222h-65.422L561.55 625.778h65.422z m-150.584 0L191.943 910.222h-65.422l284.444-284.444h65.423z m-150.585 0L113.778 837.803v-64.797l147.228-147.228h64.854z m-149.96 0l-62.065 62.066v-62.066h62.066z m734.38-428.772L765.894 341.333h-65.422l209.75-209.749v65.422z m0 85.163v59.164h-59.165l59.164-59.164z m-67.357-168.391L615.31 341.333h-65.422l227.556-227.555h65.422z m-150.585 0L464.725 341.333h-65.422L626.86 113.778h65.422z m-150.699 0L314.027 341.333h-65.423L476.16 113.778h65.422z m-150.528 0L163.5 341.333h-49.721V325.69l211.91-211.911h65.423z m-150.585 0L113.778 240.469v-64.796l61.895-61.895h64.853zM0 455.11h1024V512H0v-56.889z" fill="#333333" p-id="2420"></path></svg>