<svg t="1717123914193" class="icon" viewBox="0 0 1024 1024" version="1.1" xmlns="http://www.w3.org/2000/svg" p-id="5623" width="128" height="128"><path d="M826.372455 302.430984l-69.914326 0 0 314.347384-454.094172 0 0 69.912279c0 20.921495 13.982456 34.905998 34.932604 34.905998l384.2832 0 139.725298 139.745764 0-524.006452C861.304036 316.41344 847.266321 302.430984 826.372455 302.430984M686.599062 512.013303l0-314.37399c0-20.973684-13.931291-34.982746-34.882462-34.982746l-454.142268 0c-20.951171 0-34.878368 14.009062-34.878368 34.982746l0 489.051335 139.66697-139.745764 349.352643 0C672.666748 546.944883 686.599062 532.986987 686.599062 512.013303" p-id="5624" data-spm-anchor-id="a313x.search_index.0.i4.2e293a81UpLUxZ" class="selected" fill="#707070"></path></svg>