<svg t="1710848695889" class="icon" viewBox="0 0 1024 1024" version="1.1" xmlns="http://www.w3.org/2000/svg" p-id="19744" width="32" height="32"><path d="M102.4 426.752l102.4 136.533333h-64v262.485334c0 65.706667 48.298667 113.066667 109.738667 116.224L256 942.08V1024C152.405333 1024 67.413333 936.277333 64.085333 825.770667L64 563.285333H0l102.4-136.533333zM938.666667 682.666667a85.333333 85.333333 0 0 1 85.333333 85.333333v170.666667a85.333333 85.333333 0 0 1-85.333333 85.333333H426.666667a85.333333 85.333333 0 0 1-85.333334-85.333333V768a85.333333 85.333333 0 0 1 85.333334-85.333333h512z m0 85.333333H426.666667v170.666667h512V768z m-29.866667-341.248v85.333333h64l-102.4 136.533334L768 512h64V426.666667h76.8zM393.898667 0v251.050667c0 16.810667 5.12 36.181333 45.568 36.181333 34.986667 0 44.885333-16.213333 46.421333-31.573333l0.170667-4.608V0h80.213333v256.768c0 66.816-41.216 99.242667-126.549333 99.242667-84.992 0-122.368-25.6-126.293334-87.893334L313.173333 256.853333V0h80.810667zM121.514667 0l58.368 247.04h2.389333V0h78.592v351.914667H148.650667L81.92 93.184H79.36v258.730667H0V0h121.514667z m798.72 0v282.709333H1024v69.205334H839.338667V0h80.896zM699.562667 0v282.709333h104.106666v69.205334H619.008V0h80.554667z" fill="#555555" p-id="19745" data-spm-anchor-id="a313x.search_index.0.i4.77913a81Z5pGsm" class="selected"></path></svg>