<svg t="1717125017324" class="icon" viewBox="0 0 1024 1024" version="1.1" xmlns="http://www.w3.org/2000/svg" p-id="13844" width="128" height="128"><path d="M415.753 635.743c0 1.165 14.414 130.115-253.897 243.271-31.788 13.405-46.089 48.724-31.933 78.869 14.127 30.123 51.366 43.695 83.156 30.272 218.83-92.182 293.42-204.369 317.543-282.875 76.089 33.243 191.206 104.203 211.09 235.743 2.977 32.804 33.439 57.147 68.06 54.337 34.599-2.803 60.266-31.691 57.313-64.5a56.718 56.718 0 0 0-1.038-6.819c-28.091-186.222-180.778-282.875-282.224-326.957a346.138 346.138 0 0 1-24.867-80.156c97.028 49.814 211.696 51.73 310.334 5.18 29.395-17.565 38.203-54.389 19.669-82.261-15.604-23.466-46.21-33.63-73.891-24.532-153.921 73.09-283.211-65.517-288.436-70.72-14.64-16.353-37.431-24.026-59.662-20.033-93.509 14.852-270.296 89.107-270.296 265.213 0 32.931 28.162 59.639 62.904 59.639s62.904-26.707 62.904-59.639c1.477-51.823 34.021-98.326 83.812-119.76a366.197 366.197 0 0 0 16.666 123.994 58.076 58.076 0 0 0-7.207 41.734z m234.048-486.947c0 66.797-55.693 120.966-124.428 120.966-68.711 0-124.404-54.169-124.404-120.966 0-66.802 55.693-120.972 124.404-120.972s124.428 54.171 124.428 120.972z m0 0" p-id="13845" data-spm-anchor-id="a313x.search_index.0.i26.2e293a81UpLUxZ" class="selected" fill="#515151"></path></svg>